<?xml version="1.0" standalone="no"?>
<!DOCTYPE svg PUBLIC "-//W3C//DTD SVG 20010904//EN"
 "http://www.w3.org/TR/2001/REC-SVG-20010904/DTD/svg10.dtd">
<svg version="1.0" xmlns="http://www.w3.org/2000/svg"
 width="450.000000pt" height="450.000000pt" viewBox="0 0 450.000000 450.000000"
 preserveAspectRatio="xMidYMid meet">
<metadata>
Created by potrace 1.10, written by Peter Selinger 2001-2011
</metadata>
<g transform="translate(0.000000,450.000000) scale(0.100000,-0.100000)"
fill="#000000" stroke="none">
<path d="M2155 3394 c-289 -31 -534 -150 -731 -355 -381 -396 -417 -1023 -84
-1464 45 -59 59 -85 54 -100 -3 -11 -8 -52 -11 -91 -8 -115 41 -200 144 -250
212 -104 445 98 373 323 -46 141 -215 221 -352 166 l-42 -17 -34 40 c-86 99
-167 280 -197 439 -20 106 -16 301 10 404 53 217 194 429 378 567 390 293 958
244 1297 -112 175 -184 264 -390 277 -640 22 -440 -261 -851 -681 -988 -92
-31 -113 -32 -161 -9 -57 27 -76 80 -73 199 l3 98 45 8 c127 21 291 147 357
274 58 109 63 148 63 459 0 326 -6 359 -73 432 -51 56 -74 68 -200 103 -56 16
-110 32 -119 35 -10 4 -24 -1 -37 -14 -18 -18 -21 -33 -21 -99 0 -66 3 -82 20
-97 18 -16 22 -16 89 4 66 20 72 20 110 5 26 -10 49 -29 63 -53 22 -34 23 -47
26 -273 2 -131 -1 -267 -6 -303 -14 -84 -51 -158 -114 -221 -222 -227 -610
-106 -669 209 -6 35 -9 158 -7 305 3 285 7 300 83 333 43 19 44 19 107 -1 78
-24 74 -24 98 0 16 16 20 33 20 95 0 63 -3 78 -21 96 -11 11 -27 18 -35 15 -9
-3 -50 -15 -92 -27 -130 -35 -164 -51 -210 -93 -86 -80 -87 -80 -90 -424 -3
-251 0 -313 13 -364 52 -202 214 -355 428 -402 l27 -6 0 -123 c0 -107 3 -128
24 -172 26 -56 88 -117 141 -140 69 -28 123 -28 219 0 385 113 686 419 786
801 150 574 -165 1167 -727 1367 -126 46 -345 74 -468 61z m-444 -1920 c14 -7
34 -31 44 -53 15 -35 16 -47 6 -81 -39 -131 -236 -106 -236 31 0 52 24 89 70
110 41 19 69 17 116 -7z"/>
<path d="M2168 2443 l-3 -98 -97 -3 -98 -3 0 -84 0 -84 98 -3 97 -3 3 -92 3
-93 79 0 80 0 0 95 0 95 100 0 100 0 0 85 0 84 -97 3 -98 3 -3 98 -3 97 -79 0
-79 0 -3 -97z"/>
</g>
</svg>
